<?xml version="1.0" standalone="no"?>
<!DOCTYPE svg PUBLIC "-//W3C//DTD SVG 20010904//EN"
 "http://www.w3.org/TR/2001/REC-SVG-20010904/DTD/svg10.dtd">
<svg version="1.0" xmlns="http://www.w3.org/2000/svg"
 width="700.000000pt" height="700.000000pt" viewBox="0 0 700.000000 700.000000"
 preserveAspectRatio="xMidYMid meet">
<metadata>
Created by potrace 1.11, written by Peter Selinger 2001-2013
</metadata>
<g transform="translate(0.000000,700.000000) scale(0.100000,-0.100000)"
fill="#000000" stroke="none">
<path d="M3403 6990 c-218 -44 -381 -279 -345 -499 24 -144 121 -276 247 -336
l55 -26 0 -83 0 -83 -97 -12 c-289 -38 -576 -154 -813 -330 -41 -31 -81 -60
-88 -65 -10 -6 -30 7 -67 44 l-52 52 19 61 c30 96 22 221 -21 309 -153 319
-606 319 -763 1 -32 -65 -33 -72 -33 -183 0 -104 3 -121 27 -173 38 -80 123
-167 205 -207 90 -44 216 -53 308 -22 l60 21 55 -54 54 -54 -22 -28 c-12 -16
-54 -75 -93 -132 -156 -230 -255 -486 -290 -753 l-12 -98 -86 0 -86 0 -29 56
c-68 131 -238 212 -387 185 -309 -54 -430 -424 -212 -645 100 -101 245 -139
379 -98 90 28 158 80 214 165 l45 67 80 0 81 0 17 -118 c42 -290 156 -567 328
-796 38 -50 69 -96 69 -101 0 -6 -45 -55 -99 -109 l-99 -98 -48 18 c-36 14
-75 19 -149 19 -91 0 -106 -3 -166 -31 -115 -55 -190 -138 -229 -255 -18 -52
-21 -81 -18 -155 3 -78 8 -100 37 -158 83 -169 269 -267 447 -237 167 30 301
150 344 310 17 66 14 177 -9 242 l-19 56 104 104 103 103 58 -46 c248 -194
556 -324 856 -361 l97 -11 0 -86 0 -85 -45 -24 c-58 -30 -141 -119 -166 -176
-86 -194 -3 -414 191 -508 57 -27 76 -31 150 -32 60 0 100 6 136 19 212 79
311 317 216 520 -36 76 -107 152 -170 180 l-42 19 0 84 c0 58 4 85 13 87 6 2
53 9 102 15 293 39 595 167 834 353 l63 50 50 -49 50 -50 -16 -48 c-85 -249
70 -508 334 -557 286 -53 552 236 476 517 -34 130 -114 226 -236 284 -70 33
-82 36 -170 36 -69 0 -108 -5 -144 -19 l-48 -19 -50 51 -50 50 50 63 c190 244
318 548 356 847 l12 97 84 3 85 3 25 -47 c104 -197 365 -262 550 -136 112 76
165 180 165 322 0 74 -4 93 -32 152 -112 238 -411 299 -602 123 -32 -30 -69
-75 -82 -100 l-24 -46 -85 3 -84 3 -12 97 c-21 162 -94 412 -142 486 -48 74
-180 68 -226 -9 -26 -45 -22 -85 27 -229 62 -183 81 -298 81 -490 0 -237 -42
-420 -144 -636 -44 -93 -123 -222 -175 -286 l-22 -26 -54 54 c-84 85 -157 95
-223 30 -65 -66 -58 -132 25 -220 44 -47 54 -64 45 -72 -274 -201 -509 -294
-818 -325 -279 -27 -617 48 -863 193 -70 41 -205 136 -205 144 0 3 9 17 20 32
46 62 30 154 -34 193 -42 25 -110 25 -152 -2 -19 -11 -38 -18 -43 -15 -5 3
-36 45 -69 93 -112 164 -189 344 -234 544 -20 90 -23 131 -23 304 0 173 3 214
23 304 51 229 153 446 291 621 l19 24 75 -71 c85 -81 120 -94 186 -67 47 19
76 54 86 104 9 52 -9 87 -83 163 l-67 68 25 20 c54 44 189 129 265 167 199 99
372 141 610 149 237 8 389 -18 628 -106 71 -26 117 -18 162 29 26 28 30 38 30
91 0 57 -2 63 -36 93 -61 56 -307 133 -501 158 l-98 12 0 82 0 81 63 31 c191
94 290 321 228 521 -26 84 -60 137 -125 199 -105 100 -248 140 -393 112z m182
-289 c122 -71 104 -255 -30 -306 -110 -43 -227 39 -227 158 0 23 5 53 10 67
14 36 71 89 107 100 39 12 102 4 140 -19z m-1647 -731 c91 -55 96 -190 9 -252
-41 -29 -112 -34 -157 -11 -139 72 -87 283 70 283 27 0 58 -8 78 -20z m-659
-1686 c59 -49 46 -145 -24 -178 -41 -20 -58 -20 -95 -1 -41 21 -60 53 -60 101
0 93 106 139 179 78z m4569 10 c12 -8 29 -29 38 -46 44 -86 -58 -188 -144
-144 -43 22 -62 54 -62 104 0 62 40 102 102 102 24 0 54 -7 66 -16z m-642
-1591 c101 -65 91 -207 -19 -262 -80 -40 -165 -6 -201 81 -17 42 -18 52 -7 90
14 46 67 104 103 111 36 8 97 -2 124 -20z m-3379 -99 c97 -47 112 -176 29
-253 -37 -35 -127 -41 -174 -12 -97 61 -95 202 4 258 46 27 93 29 141 7z
m1753 -619 c37 -37 35 -103 -4 -144 -35 -36 -68 -45 -112 -31 -47 16 -74 54
-74 105 0 102 115 145 190 70z"/>
<path d="M5181 6405 c-81 -23 -147 -63 -201 -122 -199 -218 -132 -550 138
-676 61 -29 76 -31 167 -31 79 0 112 5 155 22 259 103 351 425 186 649 -98
134 -289 202 -445 158z m199 -294 c44 -35 66 -93 56 -146 -10 -52 -69 -111
-120 -121 -53 -9 -123 20 -153 65 -33 48 -32 124 2 174 14 20 27 37 28 37 1 0
20 7 42 15 52 19 101 11 145 -24z"/>
<path d="M4573 5470 c-109 -66 -68 -234 61 -247 107 -11 183 111 126 204 -37
62 -124 82 -187 43z"/>
<path d="M3702 5199 c-77 -15 -150 -56 -213 -118 -168 -169 -170 -426 -4 -597
158 -162 424 -169 587 -16 102 95 142 195 136 337 -3 79 -8 101 -37 159 -86
175 -280 273 -469 235z m168 -291 c67 -46 88 -129 49 -198 -56 -100 -193 -105
-257 -10 -20 29 -23 45 -20 93 4 46 10 63 34 88 36 39 57 48 115 48 32 1 56
-6 79 -21z"/>
<path d="M2645 4616 c-75 -18 -151 -64 -205 -123 -155 -170 -155 -414 1 -578
94 -100 196 -140 334 -133 362 19 532 462 275 719 -110 111 -254 152 -405 115z
m185 -285 c98 -70 90 -210 -15 -261 -53 -26 -82 -25 -135 3 -95 50 -108 170
-27 245 47 44 125 50 177 13z"/>
<path d="M3540 3862 c-73 -24 -125 -59 -183 -121 -230 -246 -89 -646 247 -704
228 -39 453 128 485 359 27 187 -71 365 -246 447 -58 27 -81 32 -158 34 -67 2
-104 -2 -145 -15z m195 -272 c141 -68 92 -284 -65 -284 -155 0 -208 211 -70
282 54 27 82 28 135 2z"/>
<path d="M528 1250 c-131 -23 -249 -84 -341 -176 -230 -229 -246 -595 -38
-851 57 -69 171 -150 257 -182 182 -69 386 -44 532 64 82 59 102 123 64 194
-39 72 -136 91 -204 39 -67 -51 -99 -62 -178 -62 -170 0 -306 117 -340 292
-32 160 65 335 218 392 80 30 203 24 282 -13 68 -33 107 -34 151 -4 72 47 86
134 32 197 -66 79 -292 136 -435 110z"/>
<path d="M1716 1249 c-176 -25 -333 -172 -381 -354 -18 -72 -21 -434 -4 -517
50 -239 295 -410 532 -370 197 34 352 179 392 369 18 82 20 401 4 489 -46 252
-284 420 -543 383z m175 -292 c29 -16 54 -40 74 -72 l30 -48 0 -206 c0 -201
-1 -207 -25 -251 -62 -111 -202 -140 -300 -61 -70 56 -75 74 -78 286 -4 205 2
247 45 303 55 72 168 94 254 49z"/>
<path d="M2532 1253 c-34 -7 -88 -66 -96 -104 -6 -28 23 -121 171 -549 161
-468 180 -518 213 -552 42 -43 93 -56 150 -39 81 24 83 28 264 575 95 290 166
519 166 541 0 73 -54 125 -130 125 -56 0 -96 -23 -119 -68 -10 -20 -65 -178
-121 -350 -56 -173 -104 -312 -106 -309 -2 2 -54 147 -114 322 -61 174 -118
331 -126 347 -9 17 -32 37 -57 49 -42 19 -53 20 -95 12z"/>
<path d="M3776 1250 c-15 -5 -37 -17 -48 -27 -48 -44 -48 -39 -48 -595 0 -501
1 -524 20 -555 41 -68 114 -89 179 -53 74 42 72 23 69 624 l-3 535 -29 30
c-17 17 -46 36 -65 41 -41 11 -36 11 -75 0z"/>
<path d="M4324 1250 c-18 -6 -46 -26 -63 -46 l-31 -35 2 -544 3 -543 25 -27
c46 -49 69 -55 217 -55 236 0 340 36 459 154 80 80 131 173 161 291 23 93 22
285 -1 380 -49 202 -172 346 -347 406 -53 18 -92 22 -229 25 -91 2 -179 -1
-196 -6z m374 -292 c137 -66 192 -339 106 -528 -47 -103 -108 -145 -226 -156
l-78 -7 0 363 0 363 78 -7 c44 -4 95 -16 120 -28z"/>
<path d="M5495 1253 c-42 -11 -84 -53 -95 -95 -10 -33 -9 -49 5 -84 19 -51 54
-76 115 -84 l45 -5 5 -450 c6 -502 3 -485 76 -520 66 -31 141 -3 176 66 16 31
18 78 18 539 0 318 -4 519 -10 542 -7 24 -24 48 -47 65 -35 27 -42 28 -152 30
-64 1 -125 -1 -136 -4z"/>
<path d="M6470 1234 c-119 -32 -217 -116 -274 -234 -29 -60 -31 -73 -31 -170
0 -97 2 -110 32 -172 61 -128 174 -216 309 -241 l66 -13 -45 -54 c-25 -30 -65
-74 -91 -98 -51 -48 -69 -96 -56 -143 15 -52 37 -76 85 -94 42 -17 48 -17 88
-1 82 31 256 234 335 391 37 75 80 210 98 313 15 89 16 114 6 173 -43 251
-282 407 -522 343z m163 -268 c114 -47 124 -204 18 -264 -91 -51 -201 1 -218
102 -7 47 2 78 34 117 46 55 105 71 166 45z"/>
</g>
</svg>
